# xmcd
# 
# Track frame offsets:
#     150
#     16864
#     31515
#     50222
#     73473
#     93497
#     110720
#     135559
# 
# Disc length: 2035
# 
# Revision: 0
# Processed by: cddbd v1.5.2PL0 Copyright (c) Steve Scherf et al.
# Submitted via: fre:ac v1.0.27
# 
DISCID=6d07f108
DTITLE=Sarah Lancman - Dark
DYEAR=2012
DGENRE=Jazz
TTITLE0=Dark
TTITLE1=From This Moment On
TTITLE2=River Man
TTITLE3=Should've Been
TTITLE4=Dienda
TTITLE5=Deep Song
TTITLE6=Someone To Watch Over Me
TTITLE7=Good Morning Heartache
EXTD=
EXTT0=
EXTT1=
EXTT2=
EXTT3=
EXTT4=
EXTT5=
EXTT6=
EXTT7=
PLAYORDER=
